<?xml version="1.0" ?><!DOCTYPE svg  PUBLIC '-//W3C//DTD SVG 1.1//EN'  'http://www.w3.org/Graphics/SVG/1.1/DTD/svg11.dtd'><svg height="512px" style="enable-background:new 0 0 512 512;" version="1.1" viewBox="0 0 512 512" width="512px" xml:space="preserve" xmlns="http://www.w3.org/2000/svg" xmlns:xlink="http://www.w3.org/1999/xlink"><g id="html5__x2C_"><path d="M492.871,374.968c0,65.432-53.089,118.482-118.565,118.482H137.168   c-65.497,0-118.566-53.051-118.566-118.482V138.009c0-65.451,53.069-118.483,118.566-118.483h237.137   c65.477,0,118.565,53.032,118.565,118.483V374.968z" style="fill:#FF651E;"/><path d="M207.34,108.389v40.053h-13.836V135.04h-12.665v13.402h-13.836v-40.053h13.836v13.229h12.665   v-13.229H207.34 M207.34,98.512h-13.836c-2.41,0-4.618,0.863-6.333,2.297c-1.714-1.434-3.923-2.297-6.333-2.297h-13.836   c-5.455,0-9.877,4.422-9.877,9.877v40.053c0,5.455,4.422,9.877,9.877,9.877h13.836c2.41,0,4.618-0.863,6.333-2.297   c1.714,1.434,3.923,2.297,6.333,2.297h13.836c5.455,0,9.877-4.422,9.877-9.877v-40.053   C217.217,102.934,212.795,98.512,207.34,98.512L207.34,98.512z M251.551,108.389v13.306h-12.177v26.747h-13.837v-26.747h-12.176   v-13.306H251.551 M251.551,98.512h-38.19c-5.455,0-9.877,4.422-9.877,9.877v13.306c0,5.455,4.422,9.877,9.877,9.877h2.299v16.87   c0,5.455,4.422,9.877,9.877,9.877h13.837c5.455,0,9.877-4.422,9.877-9.877v-16.87h2.3c5.455,0,9.877-4.422,9.877-9.877v-13.306   C261.429,102.934,257.006,98.512,251.551,98.512L251.551,98.512z M304.216,108.389v40.053h-13.797v-19.843l-9.516,14.25h-0.23   l-9.533-14.25v19.843h-13.528v-40.053h14.435l8.857,14.097l8.878-14.097H304.216 M304.216,98.512h-14.435   c-3.394,0-6.549,1.742-8.357,4.613l-0.511,0.811l-0.504-0.802c-1.808-2.876-4.966-4.622-8.363-4.622h-14.435   c-5.455,0-9.877,4.422-9.877,9.877v40.053c0,5.455,4.422,9.877,9.877,9.877h13.528c3.928,0,7.319-2.292,8.911-5.612   c0.207,0.013,0.414,0.02,0.622,0.02h0.23c0.202,0,0.404-0.006,0.604-0.019c1.592,3.319,4.984,5.611,8.911,5.611h13.797   c5.455,0,9.877-4.422,9.877-9.877v-40.053C314.093,102.934,309.671,98.512,304.216,98.512L304.216,98.512z M324.923,108.389v26.824   h19.472v13.229h-33.31v-40.053H324.923 M324.923,98.512h-13.838c-5.455,0-9.877,4.422-9.877,9.877v40.053   c0,5.455,4.422,9.877,9.877,9.877h33.31c5.455,0,9.877-4.422,9.877-9.877v-13.229c0-5.455-4.422-9.877-9.877-9.877H334.8v-16.947   C334.8,102.934,330.378,98.512,324.923,98.512L324.923,98.512z M364.426,166.029h0.005 M364.426,166.029l-19.819,214.724   L255.7,404.588l-88.852-23.854l-19.8-214.705H364.426 M194.893,289.559h60.846h33.52l-3.164,34.151l-30.355,7.927l-0.039,0.019   l-30.336-7.945l-2.007-21.926h-27.326l3.879,42.29l55.79,14.965h0.039l55.81-14.965l7.467-80.873h-63.276h-35.952l-2.49-26.958   h38.442h65.748l2.451-26.323h-68.199H187.56L194.893,289.559 M364.431,156.152h-0.005H147.048c-2.777,0-5.426,1.169-7.298,3.221   c-1.872,2.052-2.792,4.797-2.538,7.563l19.8,214.705c0.38,4.116,3.282,7.561,7.274,8.632l88.852,23.854   c0.839,0.226,1.7,0.338,2.561,0.338c0.86,0,1.72-0.112,2.558-0.337l88.906-23.835c3.993-1.07,6.897-4.516,7.277-8.632   l19.796-214.466c0.045-0.382,0.068-0.771,0.068-1.166C374.306,160.574,369.886,156.152,364.431,156.152L364.431,156.152z    M198.388,219.797h57.351h57.359l-0.611,6.569h-56.748h-38.442c-2.777,0-5.427,1.169-7.298,3.222s-2.792,4.798-2.537,7.563   l2.49,26.958c0.469,5.081,4.732,8.969,9.835,8.969h35.952h52.445l-5.839,63.238l-46.625,12.502l-46.603-12.501l-2.262-24.656h7.487   l1.186,12.949c0.379,4.141,3.311,7.601,7.333,8.654l30.336,7.945c0.823,0.216,1.664,0.322,2.502,0.322   c0.974,0,1.945-0.145,2.881-0.43l30.009-7.836c4.022-1.051,6.956-4.507,7.34-8.646l3.164-34.151   c0.256-2.767-0.664-5.513-2.536-7.565c-1.871-2.053-4.521-3.223-7.299-3.223h-33.52h-51.837L198.388,219.797L198.388,219.797z    M364.039,478.061H147.415c-62.448,0-113.253-50.818-113.253-113.283V148.179c0-62.454,50.805-113.263,113.253-113.263h216.624   c62.459,0,113.272,50.81,113.272,113.263v216.599C477.312,427.242,426.498,478.061,364.039,478.061z M147.415,44.818   c-56.988,0-103.351,46.367-103.351,103.36v216.599c0,57.004,46.363,103.381,103.351,103.381h216.624   c56.998,0,103.37-46.377,103.37-103.381V148.179c0-56.993-46.372-103.36-103.37-103.36H147.415z" style="fill:#80330F;"/><polygon points="180.839,135.04 193.504,135.04 193.504,148.442 207.34,148.442 207.34,108.389    193.504,108.389 193.504,121.617 180.839,121.617 180.839,108.389 167.003,108.389 167.003,148.442 180.839,148.442  " style="fill:#FFFFFF;"/><polygon points="225.538,148.442 239.375,148.442 239.375,121.695 251.551,121.695 251.551,108.389    213.361,108.389 213.361,121.695 225.538,121.695  " style="fill:#FFFFFF;"/><polygon points="271.14,128.599 280.673,142.849 280.903,142.849 290.419,128.599 290.419,148.442    304.216,148.442 304.216,108.389 289.781,108.389 280.903,122.485 272.046,108.389 257.611,108.389 257.611,148.442    271.14,148.442  " style="fill:#FFFFFF;"/><polygon points="344.395,135.213 324.923,135.213 324.923,108.389 311.085,108.389 311.085,148.442    344.395,148.442  " style="fill:#FFFFFF;"/><path d="M147.048,166.029l19.8,214.705l88.852,23.854l88.906-23.835l19.819-214.724H147.048z    M321.487,236.243h-65.748h-38.442l2.49,26.958h35.952h63.276l-7.467,80.873l-55.81,14.965H255.7l-55.79-14.965l-3.879-42.29   h27.326l2.007,21.926l30.336,7.945l0.039-0.019l0,0l30.355-7.927l3.164-34.151h-33.52l0,0h-60.846l-7.333-79.639h68.179h68.199   L321.487,236.243z" style="fill:#FFFFFF;"/><polygon points="180.839,135.04 193.504,135.04 193.504,148.442 207.34,148.442 207.34,108.389    193.504,108.389 193.504,121.617 180.839,121.617 180.839,108.389 167.003,108.389 167.003,148.442 180.839,148.442  " style="fill:#FFFFFF;"/><polygon points="225.538,148.442 239.375,148.442 239.375,121.695 251.551,121.695 251.551,108.389    213.361,108.389 213.361,121.695 225.538,121.695  " style="fill:#FFFFFF;"/><polygon points="271.14,128.599 280.673,142.849 280.903,142.849 290.419,128.599 290.419,148.442    304.216,148.442 304.216,108.389 289.781,108.389 280.903,122.485 272.046,108.389 257.611,108.389 257.611,148.442    271.14,148.442  " style="fill:#FFFFFF;"/><polygon points="344.395,135.213 324.923,135.213 324.923,108.389 311.085,108.389 311.085,148.442    344.395,148.442  " style="fill:#FFFFFF;"/><path d="M147.048,166.029l19.8,214.705l88.852,23.854l88.906-23.835l19.819-214.724H147.048z    M321.487,236.243h-65.748h-38.442l2.49,26.958h35.952h63.276l-7.467,80.873l-55.81,14.965H255.7l-55.79-14.965l-3.879-42.29   h27.326l2.007,21.926l30.336,7.945l0.039-0.019l0,0l30.355-7.927l3.164-34.151h-33.52l0,0h-60.846l-7.333-79.639h68.179h68.199   L321.487,236.243z" style="fill:#FFFFFF;"/></g><g id="Layer_1"/></svg>